<?xml version="1.0" encoding="UTF-8"?>
<!DOCTYPE svg PUBLIC "-//W3C//DTD SVG 1.1//EN" "http://www.w3.org/Graphics/SVG/1.1/DTD/svg11.dtd">
<svg xmlns="http://www.w3.org/2000/svg" version="1.1" width="360px" height="146px" style="shape-rendering:geometricPrecision; text-rendering:geometricPrecision; image-rendering:optimizeQuality; fill-rule:evenodd; clip-rule:evenodd" xmlns:xlink="http://www.w3.org/1999/xlink">
<g><path style="opacity:0.004" fill="#000000" d="M 321.5,-0.5 C 321.833,-0.5 322.167,-0.5 322.5,-0.5C 322.315,0.170143 321.981,0.170143 321.5,-0.5 Z"/></g>
<g><path style="opacity:0.004" fill="#000000" d="M 326.5,3.5 C 326.897,2.47498 327.563,2.30831 328.5,3C 327.906,3.46434 327.239,3.63101 326.5,3.5 Z"/></g>
<g><path style="opacity:0.004" fill="#000000" d="M 318.5,4.5 C 317.833,5.16667 317.833,5.16667 318.5,4.5 Z"/></g>
<g><path style="opacity:0.004" fill="#000000" d="M 320.5,5.5 C 320.5,6.16667 320.833,6.5 321.5,6.5C 321.44,7.04309 321.107,7.37642 320.5,7.5C 319.227,6.7435 319.227,6.07683 320.5,5.5 Z"/></g>
<g><path style="opacity:0.004" fill="#000000" d="M 65.5,12.5 C 66.8333,13.1667 66.8333,13.1667 65.5,12.5 Z"/></g>
<g><path style="opacity:0.004" fill="#000000" d="M 98.5,14.5 C 98.5,14.1667 98.5,13.8333 98.5,13.5C 99.0768,12.2267 99.7435,12.2267 100.5,13.5C 100.043,14.2975 99.3764,14.6309 98.5,14.5 Z"/></g>
<g><path style="opacity:0.958" fill="#f7f7f6" d="M 250.5,16.5 C 253.951,19.4629 256.451,23.1296 258,27.5C 258.808,29.5787 258.641,31.5787 257.5,33.5C 253.605,34.0203 249.771,34.3537 246,34.5C 244.833,32.6667 243.667,30.8333 242.5,29C 243.712,27.8932 243.379,27.3932 241.5,27.5C 240.922,25.5565 239.922,25.2232 238.5,26.5C 237.784,25.689 236.95,25.0223 236,24.5C 234.85,25.4239 233.85,25.4239 233,24.5C 232.395,26.4812 231.395,26.8146 230,25.5C 227.256,26.7404 225.423,28.7404 224.5,31.5C 222.981,34.5256 222.315,37.8589 222.5,41.5C 222.667,43.8333 222.833,46.1667 223,48.5C 223.2,50.3197 224.034,51.653 225.5,52.5C 225.5,54.5 226.5,55.5 228.5,55.5C 232.952,57.9714 237.619,58.1381 242.5,56C 248.292,49.8483 246.626,47.6817 237.5,49.5C 236.222,49.2178 235.222,48.5511 234.5,47.5C 233.524,44.5332 233.191,41.6999 233.5,39C 234.094,38.5357 234.761,38.369 235.5,38.5C 243.5,38.5 251.5,38.5 259.5,38.5C 259.5,48.8333 259.5,59.1667 259.5,69.5C 256.751,69.2739 254.084,69.6072 251.5,70.5C 250.818,69.7573 250.151,69.0906 249.5,68.5C 248.811,67.2928 248.645,65.9594 249,64.5C 245.444,67.6109 241.444,69.9442 237,71.5C 229.809,70.9165 223.309,68.5832 217.5,64.5C 217.158,63.6618 216.492,63.3284 215.5,63.5C 215.167,62.5 214.5,61.8333 213.5,61.5C 213.141,59.629 212.141,58.129 210.5,57C 211.299,55.2513 210.632,53.918 208.5,53C 208.892,50.6457 208.892,48.1457 208.5,45.5C 208.5,42.5 208.5,39.5 208.5,36.5C 208.737,35.209 208.404,34.209 207.5,33.5C 209.54,30.3959 211.207,27.0625 212.5,23.5C 213.974,22.5637 214.974,21.2303 215.5,19.5C 226.511,11.3558 238.177,10.3558 250.5,16.5 Z"/></g>
<g><path style="opacity:0.004" fill="#000000" d="M 245.5,12.5 C 246.833,13.1667 246.833,13.1667 245.5,12.5 Z"/></g>
<g><path style="opacity:0.004" fill="#000000" d="M 296.5,13.5 C 295.833,12.1667 295.833,12.1667 296.5,13.5 Z"/></g>
<g><path style="opacity:0.004" fill="#000000" d="M 311.5,12.5 C 312.833,13.1667 312.833,13.1667 311.5,12.5 Z"/></g>
<g><path style="opacity:0.451" fill="#7f5736" d="M 328.5,11.5 C 330.19,11.8564 331.19,12.8564 331.5,14.5C 329.81,14.1436 328.81,13.1436 328.5,11.5 Z"/></g>
<g><path style="opacity:0.918" fill="#fdfdfd" d="M -0.5,13.5 C 13.8333,13.5 28.1667,13.5 42.5,13.5C 42.5,18.5 42.5,23.5 42.5,28.5C 28.1667,28.5 13.8333,28.5 -0.5,28.5C -0.5,23.5 -0.5,18.5 -0.5,13.5 Z"/></g>
<g><path style="opacity:0.004" fill="#000000" d="M 106.5,14.5 C 105.833,13.1667 105.833,13.1667 106.5,14.5 Z"/></g>
<g><path style="opacity:0.915" fill="#fcfcfc" d="M 106.5,14.5 C 120.759,13.3517 135.092,13.1851 149.5,14C 150.632,18.4132 150.799,22.9132 150,27.5C 135.575,28.6564 121.075,28.8231 106.5,28C 106.381,23.7116 106.381,19.2116 106.5,14.5 Z"/></g>
<g><path style="opacity:0.964" fill="#f9f9f9" d="M 158.5,13.5 C 169.838,13.3335 181.172,13.5001 192.5,14C 194.953,14.9594 197.286,16.126 199.5,17.5C 206.631,26.6143 205.965,35.1143 197.5,43C 198.094,43.4643 198.761,43.631 199.5,43.5C 200.874,45.7137 202.041,48.047 203,50.5C 203.153,57.2262 204.319,63.7262 206.5,70C 202.161,69.3182 197.828,69.4848 193.5,70.5C 192.575,69.6431 191.908,68.6431 191.5,67.5C 191.737,66.209 191.404,65.209 190.5,64.5C 189.402,62.2816 189.402,60.1149 190.5,58C 189.833,57.6667 189.167,57.3333 188.5,57C 189.961,54.0148 189.295,51.5148 186.5,49.5C 181.843,49.351 177.176,49.0177 172.5,48.5C 171.503,55.1335 171.17,61.8002 171.5,68.5C 171.158,69.3382 170.492,69.6716 169.5,69.5C 165.629,69.815 161.962,69.4816 158.5,68.5C 158.5,50.1667 158.5,31.8333 158.5,13.5 Z M 188.5,27.5 C 187.167,27.8333 187.167,28.1667 188.5,28.5C 189.234,29.7079 189.567,31.0413 189.5,32.5C 189.376,34.5816 188.376,36.0816 186.5,37C 181.511,37.4993 176.511,37.6659 171.5,37.5C 171.5,33.5 171.5,29.5 171.5,25.5C 176.179,25.3342 180.845,25.5008 185.5,26C 186.737,26.2321 187.737,26.7321 188.5,27.5 Z"/></g>
<g><path style="opacity:0.96" fill="#f9f9f9" d="M 65.5,13.5 C 67.4726,17.457 69.8059,21.1237 72.5,24.5C 74.4176,29.3434 77.0843,33.6767 80.5,37.5C 81.7226,40.2739 83.2226,42.9406 85,45.5C 85.755,34.9806 85.5883,24.8139 84.5,15C 88.9719,13.5634 93.6386,13.0634 98.5,13.5C 98.5,13.8333 98.5,14.1667 98.5,14.5C 98.5,32.8333 98.5,51.1667 98.5,69.5C 93.6827,69.7092 89.0161,69.7092 84.5,69.5C 84.1551,66.8021 82.8218,64.8021 80.5,63.5C 78.4195,60.8816 77.0862,58.215 76.5,55.5C 76.5,54.8333 76.1667,54.5 75.5,54.5C 74.4427,53.2164 73.4427,51.8831 72.5,50.5C 71.2765,46.4098 69.1098,42.4098 66,38.5C 65.5002,48.4944 65.3335,58.4944 65.5,68.5C 64.8333,68.5 64.5,68.8333 64.5,69.5C 64.1667,69.5 63.8333,69.5 63.5,69.5C 59.7657,69.3227 56.0991,69.6561 52.5,70.5C 52.6716,69.5084 52.3382,68.8417 51.5,68.5C 51.8256,50.5899 51.4923,32.7566 50.5,15C 55.3088,13.5585 60.3088,13.0585 65.5,13.5 Z"/></g>
<g><path style="opacity:0.98" fill="#f5f5f5" d="M 279.5,22.5 C 280.974,26.1092 282.974,29.4425 285.5,32.5C 289.348,26.2319 293.015,19.8986 296.5,13.5C 301.5,13.5 306.5,13.5 311.5,13.5C 308.699,20.4345 305.366,27.1012 301.5,33.5C 299.412,35.3356 298.079,37.6689 297.5,40.5C 296.833,40.5 296.5,40.8333 296.5,41.5C 295.356,43.1002 294.189,44.7669 293,46.5C 292.5,53.8258 292.334,61.1591 292.5,68.5C 291.778,68.9175 291.278,69.5842 291,70.5C 286.934,69.5363 282.767,69.203 278.5,69.5C 278.666,62.1591 278.5,54.8258 278,47.5C 275.734,44.1414 273.567,40.8081 271.5,37.5C 271.573,35.9731 270.906,34.9731 269.5,34.5C 269.25,32.326 268.25,30.6594 266.5,29.5C 264.618,25.1081 261.951,20.7748 258.5,16.5C 258.5,15.5 258.5,14.5 258.5,13.5C 263.875,13.1718 269.208,13.5052 274.5,14.5C 276.192,17.2308 277.858,19.8975 279.5,22.5 Z"/></g>
<g><path style="opacity:0.004" fill="#000000" d="M 295.5,13.5 C 294.833,14.1667 294.833,14.1667 295.5,13.5 Z"/></g>
<g><path style="opacity:0.004" fill="#000000" d="M 275.5,13.5 C 276.833,14.1667 276.833,14.1667 275.5,13.5 Z"/></g>
<g><path style="opacity:0.318" fill="#a5a5a5" d="M 158.5,13.5 C 158.5,31.8333 158.5,50.1667 158.5,68.5C 158.167,68.5 157.833,68.5 157.5,68.5C 157.806,50.4655 157.473,32.2988 156.5,14C 157.094,13.5357 157.761,13.369 158.5,13.5 Z"/></g>
<g><path style="opacity:0.004" fill="#000000" d="M 199.5,17.5 C 199.639,15.663 200.306,15.3296 201.5,16.5C 201.043,17.2975 200.376,17.6309 199.5,17.5 Z"/></g>
<g><path style="opacity:0.004" fill="#000000" d="M 216.5,15.5 C 217.525,15.8966 217.692,16.5632 217,17.5C 216.536,16.9056 216.369,16.2389 216.5,15.5 Z"/></g>
<g><path style="opacity:0.004" fill="#000000" d="M 250.5,16.5 C 250.897,15.475 251.563,15.3083 252.5,16C 251.906,16.4643 251.239,16.631 250.5,16.5 Z"/></g>
<g><path style="opacity:0.004" fill="#000000" d="M 68.5,16.5 C 69.8333,17.1667 69.8333,17.1667 68.5,16.5 Z"/></g>
<g><path style="opacity:0.004" fill="#000000" d="M 258.5,16.5 C 257.833,17.1667 257.833,17.1667 258.5,16.5 Z"/></g>
<g><path style="opacity:0.004" fill="#000000" d="M 202.5,19.5 C 202.897,18.475 203.563,18.3083 204.5,19C 203.906,19.4643 203.239,19.631 202.5,19.5 Z"/></g>
<g><path style="opacity:0.004" fill="#000000" d="M 215.5,19.5 C 214.833,18.1667 214.833,18.1667 215.5,19.5 Z"/></g>
<g><path style="opacity:0.004" fill="#000000" d="M 254.5,18.5 C 255.833,19.1667 255.833,19.1667 254.5,18.5 Z"/></g>
<g><path style="opacity:0.004" fill="#000000" d="M 291.5,18.5 C 292.833,19.1667 292.833,19.1667 291.5,18.5 Z"/></g>
<g><path style="opacity:0.004" fill="#000000" d="M 212.5,23.5 C 211.224,22.6136 211.224,21.6136 212.5,20.5C 213.087,21.2334 213.087,22.2334 212.5,23.5 Z"/></g>
<g><path style="opacity:0.004" fill="#000000" d="M 279.5,22.5 C 279.369,21.6236 279.702,20.9569 280.5,20.5C 281.873,22.8084 281.54,23.4751 279.5,22.5 Z"/></g>
<g><path style="opacity:0.004" fill="#000000" d="M 344.5,20.5 C 345.833,21.1667 345.833,21.1667 344.5,20.5 Z"/></g>
<g><path style="opacity:0.004" fill="#000000" d="M 260.5,21.5 C 261.833,22.1667 261.833,22.1667 260.5,21.5 Z"/></g>
<g><path style="opacity:0.004" fill="#000000" d="M 335.5,21.5 C 336.525,21.8966 336.692,22.5632 336,23.5C 335.536,22.9056 335.369,22.2389 335.5,21.5 Z"/></g>
<g><path style="opacity:0.004" fill="#000000" d="M 308.5,22.5 C 309.833,23.1667 309.833,23.1667 308.5,22.5 Z"/></g>
<g><path style="opacity:0.004" fill="#000000" d="M 73.5,24.5 C 72.8333,23.1667 72.8333,23.1667 73.5,24.5 Z"/></g>
<g><path style="opacity:0.004" fill="#000000" d="M 346.5,24.5 C 347.077,23.2267 347.743,23.2267 348.5,24.5C 348.03,25.463 347.363,25.463 346.5,24.5 Z"/></g>
<g><path style="opacity:0.004" fill="#000000" d="M 73.5,24.5 C 74.8333,25.1667 74.8333,25.1667 73.5,24.5 Z"/></g>
<g><path style="opacity:0.004" fill="#000000" d="M 337.5,24.5 C 338.833,25.1667 338.833,25.1667 337.5,24.5 Z"/></g>
<g><path style="opacity:0.004" fill="#000000" d="M 282.5,25.5 C 283.833,26.1667 283.833,26.1667 282.5,25.5 Z"/></g>
<g><path style="opacity:0.004" fill="#000000" d="M 205.5,26.5 C 206.833,27.1667 206.833,27.1667 205.5,26.5 Z"/></g>
<g><path style="opacity:0.004" fill="#000000" d="M 208.5,26.5 C 209.833,27.1667 209.833,27.1667 208.5,26.5 Z"/></g>
<g><path style="opacity:0.004" fill="#000000" d="M 286.5,26.5 C 287.833,27.1667 287.833,27.1667 286.5,26.5 Z"/></g>
<g><path style="opacity:0.004" fill="#000000" d="M 228.5,27.5 C 229.833,28.1667 229.833,28.1667 228.5,27.5 Z"/></g>
<g><path style="opacity:0.004" fill="#000000" d="M 241.5,27.5 C 240.833,28.1667 240.833,28.1667 241.5,27.5 Z"/></g>
<g><path style="opacity:0.004" fill="#000000" d="M 283.5,27.5 C 284.833,28.1667 284.833,28.1667 283.5,27.5 Z"/></g>
<g><path style="opacity:0.004" fill="#000000" d="M 305.5,28.5 C 305.897,27.475 306.563,27.3083 307.5,28C 306.906,28.4643 306.239,28.631 305.5,28.5 Z"/></g>
<g><path style="opacity:0.004" fill="#000000" d="M 350.5,28.5 C 351.833,29.1667 351.833,29.1667 350.5,28.5 Z"/></g>
<g><path style="opacity:0.004" fill="#000000" d="M 76.5,29.5 C 77.8333,30.1667 77.8333,30.1667 76.5,29.5 Z"/></g>
<g><path style="opacity:0.004" fill="#000000" d="M 226.5,29.5 C 227.833,30.1667 227.833,30.1667 226.5,29.5 Z"/></g>
<g><path style="opacity:0.004" fill="#000000" d="M 266.5,29.5 C 266.631,30.2389 266.464,30.9056 266,31.5C 265.308,30.5632 265.475,29.8966 266.5,29.5 Z"/></g>
<g><path style="opacity:0.004" fill="#000000" d="M 340.5,29.5 C 341.525,29.8966 341.692,30.5632 341,31.5C 340.536,30.9056 340.369,30.2389 340.5,29.5 Z"/></g>
<g><path style="opacity:0.004" fill="#242424" d="M 188.5,28.5 C 189.586,28.62 190.253,29.2867 190.5,30.5C 190.457,31.4164 190.124,32.0831 189.5,32.5C 189.567,31.0413 189.234,29.7079 188.5,28.5 Z"/></g>
<g><path style="opacity:1" fill="#e77c08" d="M 315.5,-0.5 C 316.5,-0.5 317.5,-0.5 318.5,-0.5C 328.072,5.73642 336.738,13.0697 344.5,21.5C 344.427,23.0269 345.094,24.0269 346.5,24.5C 353.236,35.7138 357.569,47.7138 359.5,60.5C 359.5,65.5 359.5,70.5 359.5,75.5C 357.75,85.7598 354.75,95.7598 350.5,105.5C 348.75,106.659 347.75,108.326 347.5,110.5C 346.833,110.5 346.5,110.833 346.5,111.5C 344.453,113.55 342.786,115.883 341.5,118.5C 340.5,118.833 339.833,119.5 339.5,120.5C 337.5,121.833 335.833,123.5 334.5,125.5C 332.091,126.701 330.091,128.367 328.5,130.5C 326.596,130.738 325.262,131.738 324.5,133.5C 323.222,133.782 322.222,134.449 321.5,135.5C 321.167,134.167 320.833,134.167 320.5,135.5C 319.833,135.5 319.5,135.833 319.5,136.5C 317.847,136.66 316.514,137.326 315.5,138.5C 313.007,138.329 311.174,139.329 310,141.5C 307.588,140.525 305.588,141.192 304,143.5C 302.855,142.316 301.688,142.316 300.5,143.5C 299.833,143.5 299.167,143.5 298.5,143.5C 295.345,143.99 292.345,144.656 289.5,145.5C 285.167,145.5 280.833,145.5 276.5,145.5C 276.158,144.662 275.492,144.328 274.5,144.5C 272.565,143.85 270.565,143.517 268.5,143.5C 266.139,143.326 263.806,142.993 261.5,142.5C 261.5,141.833 261.167,141.5 260.5,141.5C 254.135,140.149 248.469,137.482 243.5,133.5C 244,133.167 244.5,132.833 245,132.5C 279.707,146.488 309.707,139.821 335,112.5C 337.157,110.183 338.657,107.516 339.5,104.5C 342.195,100.795 344.528,96.7946 346.5,92.5C 346.553,91.1534 346.553,89.82 346.5,88.5C 348.466,87.7455 348.8,86.5788 347.5,85C 349.117,82.6305 350.117,79.9638 350.5,77C 350.355,76.228 350.022,75.5613 349.5,75C 350.861,73.4157 351.528,71.5824 351.5,69.5C 351.5,67.8333 351.5,66.1667 351.5,64.5C 351.324,62.7454 351.324,60.912 351.5,59C 351.097,57.5272 350.43,56.1939 349.5,55C 349.833,54 350.167,53 350.5,52C 348.556,47.1602 346.889,41.9936 345.5,36.5C 345.204,34.597 344.537,32.9303 343.5,31.5C 340.646,25.5441 336.646,19.8775 331.5,14.5C 331.19,12.8564 330.19,11.8564 328.5,11.5C 326.704,9.10001 324.37,7.43334 321.5,6.5C 320.833,6.5 320.5,6.16667 320.5,5.5C 320.158,4.66175 319.492,4.32842 318.5,4.5C 316.721,3.33026 315.721,1.6636 315.5,-0.5 Z"/></g>
<g><path style="opacity:0.004" fill="#000000" d="M 224.5,31.5 C 225.833,32.1667 225.833,32.1667 224.5,31.5 Z"/></g>
<g><path style="opacity:0.004" fill="#000000" d="M 259.5,32.5 C 260.833,33.1667 260.833,33.1667 259.5,32.5 Z"/></g>
<g><path style="opacity:0.004" fill="#170f09" d="M 343.5,31.5 C 344.537,32.9303 345.204,34.597 345.5,36.5C 343.787,35.3646 343.12,33.698 343.5,31.5 Z"/></g>
<g><path style="opacity:0.929" fill="#fefefe" d="M 41.5,48.5 C 27.8333,48.5 14.1667,48.5 0.5,48.5C 0.166667,48.5 -0.166667,48.5 -0.5,48.5C -0.5,43.8333 -0.5,39.1667 -0.5,34.5C 13.4252,33.3522 27.4252,33.1855 41.5,34C 42.8236,38.9329 42.8236,43.7663 41.5,48.5 Z"/></g>
<g><path style="opacity:0.928" fill="#f3f3f3" d="M 107.5,33.5 C 121.504,33.3334 135.504,33.5001 149.5,34C 151.187,39.7462 150.687,45.2462 148,50.5C 134.908,49.6764 121.742,49.1764 108.5,49C 106.863,44.5582 105.863,39.8915 105.5,35C 106.416,34.7216 107.082,34.2216 107.5,33.5 Z"/></g>
<g><path style="opacity:0.004" fill="#000000" d="M 207.5,33.5 C 207.631,34.2389 207.464,34.9056 207,35.5C 206.308,34.5632 206.475,33.8966 207.5,33.5 Z"/></g>
<g><path style="opacity:0.004" fill="#000000" d="M 301.5,33.5 C 302.573,34.2506 302.74,35.2506 302,36.5C 301.517,35.552 301.351,34.552 301.5,33.5 Z"/></g>
<g><path style="opacity:0.004" fill="#000000" d="M 352.5,33.5 C 353.833,34.1667 353.833,34.1667 352.5,33.5 Z"/></g>
<g><path style="opacity:0.004" fill="#000000" d="M 269.5,34.5 C 269.631,35.2389 269.464,35.9056 269,36.5C 268.308,35.5632 268.475,34.8966 269.5,34.5 Z"/></g>
<g><path style="opacity:0.004" fill="#000000" d="M 80.5,37.5 C 80.8966,36.475 81.5632,36.3083 82.5,37C 81.9056,37.4643 81.2389,37.631 80.5,37.5 Z"/></g>
<g><path style="opacity:0.004" fill="#000000" d="M 223.5,36.5 C 224.525,36.8966 224.692,37.5632 224,38.5C 223.536,37.9056 223.369,37.2389 223.5,36.5 Z"/></g>
<g><path style="opacity:0.004" fill="#000000" d="M 235.5,37.5 C 234.833,36.1667 234.833,36.1667 235.5,37.5 Z"/></g>
<g><path style="opacity:0.059" fill="#848483" d="M 259.5,38.5 C 251.5,38.5 243.5,38.5 235.5,38.5C 235.5,38.1667 235.5,37.8333 235.5,37.5C 243.752,37.8158 251.919,37.4825 260,36.5C 260.692,37.4368 260.525,38.1034 259.5,38.5 Z"/></g>
<g><path style="opacity:0.004" fill="#000000" d="M 271.5,37.5 C 270.833,38.1667 270.833,38.1667 271.5,37.5 Z"/></g>
<g><path style="opacity:0.125" fill="#5e4933" d="M 208.5,36.5 C 208.5,39.5 208.5,42.5 208.5,45.5C 207.733,44.828 207.066,43.9947 206.5,43C 207.117,40.723 207.784,38.5563 208.5,36.5 Z"/></g>
<g><path style="opacity:0.004" fill="#000000" d="M 355.5,39.5 C 356.525,39.8966 356.692,40.5632 356,41.5C 355.536,40.9056 355.369,40.2389 355.5,39.5 Z"/></g>
<g><path style="opacity:0.004" fill="#000000" d="M 297.5,40.5 C 298.833,41.1667 298.833,41.1667 297.5,40.5 Z"/></g>
<g><path style="opacity:0.004" fill="#000000" d="M 296.5,41.5 C 296.833,41.5 297.167,41.5 297.5,41.5C 297.315,42.1701 296.981,42.1701 296.5,41.5 Z"/></g>
<g><path style="opacity:0.004" fill="#000000" d="M 66.5,42.5 C 67.8333,43.1667 67.8333,43.1667 66.5,42.5 Z"/></g>
<g><path style="opacity:0.004" fill="#000000" d="M 199.5,43.5 C 199.897,42.475 200.563,42.3083 201.5,43C 200.906,43.4643 200.239,43.631 199.5,43.5 Z"/></g>
<g><path style="opacity:0.004" fill="#000000" d="M 223.5,43.5 C 224.525,43.8966 224.692,44.5632 224,45.5C 223.536,44.9056 223.369,44.2389 223.5,43.5 Z"/></g>
<g><path style="opacity:0.004" fill="#000000" d="M 151.5,46.5 C 152.833,47.1667 152.833,47.1667 151.5,46.5 Z"/></g>
<g><path style="opacity:0.051" fill="#616161" d="M 0.5,48.5 C 14.1667,48.5 27.8333,48.5 41.5,48.5C 41.2172,49.2891 40.7172,49.9558 40,50.5C 26.7353,49.8418 13.5687,49.1751 0.5,48.5 Z"/></g>
<g><path style="opacity:0.004" fill="#170f09" d="M 234.5,47.5 C 235.222,48.5511 236.222,49.2178 237.5,49.5C 236.749,50.5735 235.749,50.7401 234.5,50C 233.402,49.2303 233.402,48.397 234.5,47.5 Z"/></g>
<g><path style="opacity:0.004" fill="#000000" d="M 275.5,48.5 C 276.833,49.1667 276.833,49.1667 275.5,48.5 Z"/></g>
<g><path style="opacity:0.004" fill="#000000" d="M 72.5,50.5 C 71.8333,51.1667 71.8333,51.1667 72.5,50.5 Z"/></g>
<g><path style="opacity:0.004" fill="#000000" d="M 185.5,50.5 C 186.833,51.1667 186.833,51.1667 185.5,50.5 Z"/></g>
<g><path style="opacity:0.004" fill="#000000" d="M 0.5,51.5 C 1.83333,52.1667 1.83333,52.1667 0.5,51.5 Z"/></g>
<g><path style="opacity:0.004" fill="#000000" d="M 148.5,51.5 C 149.833,52.1667 149.833,52.1667 148.5,51.5 Z"/></g>
<g><path style="opacity:0.004" fill="#000000" d="M 225.5,52.5 C 225.897,51.475 226.563,51.3083 227.5,52C 226.906,52.4643 226.239,52.631 225.5,52.5 Z"/></g>
<g><path style="opacity:0.004" fill="#000000" d="M 242.5,52.5 C 243.833,53.1667 243.833,53.1667 242.5,52.5 Z"/></g>
<g><path style="opacity:0.912" fill="#f7f7f7" d="M 106.5,68.5 C 106.793,64.5633 106.46,60.73 105.5,57C 106.167,56 106.833,55 107.5,54C 121.167,53.3333 134.833,53.3333 148.5,54C 149,54.5 149.5,55 150,55.5C 150.667,59.5 150.667,63.5 150,67.5C 149.5,68 149,68.5 148.5,69C 134.455,69.7984 120.455,69.6318 106.5,68.5 Z"/></g>
<g><path style="opacity:0.911" fill="#f6f6f6" d="M -0.5,68.5 C -0.5,63.8333 -0.5,59.1667 -0.5,54.5C 13.7548,53.5178 28.0882,53.1844 42.5,53.5C 42.4052,59.2111 42.4052,64.7111 42.5,70C 29.1752,69.2048 15.8418,69.3714 2.5,70.5C 1.48224,69.8075 0.482236,69.1408 -0.5,68.5 Z"/></g>
<g><path style="opacity:0.004" fill="#000000" d="M 75.5,54.5 C 76.1667,54.5 76.5,54.8333 76.5,55.5C 75.7784,55.9175 75.2784,56.5842 75,57.5C 74.2599,56.2506 74.4265,55.2506 75.5,54.5 Z"/></g>
<g><path style="opacity:0.004" fill="#000000" d="M 228.5,54.5 C 229.833,55.1667 229.833,55.1667 228.5,54.5 Z"/></g>
<g><path style="opacity:0.004" fill="#000000" d="M 239.5,55.5 C 239.897,54.475 240.563,54.3083 241.5,55C 240.906,55.4643 240.239,55.631 239.5,55.5 Z"/></g>
<g><path style="opacity:0.004" fill="#000000" d="M 151.5,55.5 C 152.833,56.1667 152.833,56.1667 151.5,55.5 Z"/></g>
<g><path style="opacity:0.004" fill="#000000" d="M 213.5,61.5 C 212.923,62.7733 212.257,62.7733 211.5,61.5C 211.97,60.537 212.637,60.537 213.5,61.5 Z"/></g>
<g><path style="opacity:0.004" fill="#000000" d="M 80.5,63.5 C 79.8333,64.1667 79.8333,64.1667 80.5,63.5 Z"/></g>
<g><path style="opacity:0.004" fill="#000000" d="M 215.5,63.5 C 215.103,64.525 214.437,64.6917 213.5,64C 214.094,63.5357 214.761,63.369 215.5,63.5 Z"/></g>
<g><path style="opacity:0.2" fill="#766152" d="M 190.5,64.5 C 191.404,65.209 191.737,66.209 191.5,67.5C 190.733,66.828 190.066,65.9947 189.5,65C 189.728,64.6012 190.062,64.4346 190.5,64.5 Z"/></g>
<g><path style="opacity:0.004" fill="#000000" d="M 217.5,64.5 C 218.087,65.7666 218.087,66.7666 217.5,67.5C 216.224,66.3864 216.224,65.3864 217.5,64.5 Z"/></g>
<g><path style="opacity:0.004" fill="#000000" d="M 351.5,64.5 C 351.5,66.1667 351.5,67.8333 351.5,69.5C 350.733,68.828 350.066,67.9947 349.5,67C 350.833,66.3333 350.833,65.6667 349.5,65C 350.094,64.5357 350.761,64.369 351.5,64.5 Z"/></g>
<g><path style="opacity:0.004" fill="#000000" d="M 51.5,68.5 C 52.3382,68.8417 52.6716,69.5084 52.5,70.5C 50.8946,69.9941 50.5613,69.3274 51.5,68.5 Z"/></g>
<g><path style="opacity:0.004" fill="#000000" d="M 65.5,68.5 C 66.8847,69.3023 66.718,69.9689 65,70.5C 64.2352,70.4301 63.7352,70.0967 63.5,69.5C 63.8333,69.5 64.1667,69.5 64.5,69.5C 65.1667,69.5 65.5,69.1667 65.5,68.5 Z"/></g>
<g><path style="opacity:0.004" fill="#000000" d="M 83.5,69.5 C 82.8333,68.1667 82.8333,68.1667 83.5,69.5 Z"/></g>
<g><path style="opacity:0.004" fill="#000000" d="M 98.5,69.5 C 99.3635,68.537 100.03,68.537 100.5,69.5C 99.7435,70.7733 99.0768,70.7733 98.5,69.5 Z"/></g>
<g><path style="opacity:0.004" fill="#000000" d="M 106.5,68.5 C 107.463,69.3635 107.463,70.0302 106.5,70.5C 105.227,69.7435 105.227,69.0768 106.5,68.5 Z"/></g>
<g><path style="opacity:0.004" fill="#000000" d="M 157.5,68.5 C 156.833,69.1667 156.833,69.1667 157.5,68.5 Z"/></g>
<g><path style="opacity:0.004" fill="#000000" d="M 171.5,68.5 C 172.885,69.3023 172.718,69.9689 171,70.5C 170.235,70.4301 169.735,70.0967 169.5,69.5C 170.492,69.6716 171.158,69.3382 171.5,68.5 Z"/></g>
<g><path style="opacity:0.004" fill="#000000" d="M 221.5,68.5 C 222.833,69.1667 222.833,69.1667 221.5,68.5 Z"/></g>
<g><path style="opacity:0.004" fill="#000000" d="M 249.5,68.5 C 249.631,69.2389 249.464,69.9056 249,70.5C 248.308,69.5632 248.475,68.8966 249.5,68.5 Z"/></g>
<g><path style="opacity:0.004" fill="#000000" d="M 277.5,69.5 C 276.833,68.1667 276.833,68.1667 277.5,69.5 Z"/></g>
<g><path style="opacity:0.004" fill="#000000" d="M 292.5,68.5 C 295.001,68.5109 295.168,69.1776 293,70.5C 292.536,69.9056 292.369,69.2389 292.5,68.5 Z"/></g>
<g><path style="opacity:0.004" fill="#000000" d="M 83.5,69.5 C 83.8333,69.5 84.1667,69.5 84.5,69.5C 84.3147,70.1701 83.9813,70.1701 83.5,69.5 Z"/></g>
<g><path style="opacity:0.004" fill="#000000" d="M 259.5,69.5 C 260.833,70.1667 260.833,70.1667 259.5,69.5 Z"/></g>
<g><path style="opacity:0.004" fill="#000000" d="M 277.5,69.5 C 277.833,69.5 278.167,69.5 278.5,69.5C 278.315,70.1701 277.981,70.1701 277.5,69.5 Z"/></g>
<g><path style="opacity:0.828" fill="#eae4e0" d="M 269.5,73.5 C 271.5,73.5 273.5,73.5 275.5,73.5C 275.664,76.1873 275.497,78.854 275,81.5C 273.301,80.5939 271.467,80.2606 269.5,80.5C 269.5,78.1667 269.5,75.8333 269.5,73.5 Z"/></g>
<g><path style="opacity:0.004" fill="#000000" d="M 229.5,82.5 C 230.833,83.1667 230.833,83.1667 229.5,82.5 Z"/></g>
<g><path style="opacity:0.004" fill="#000000" d="M 243.5,82.5 C 244.833,83.1667 244.833,83.1667 243.5,82.5 Z"/></g>
<g><path style="opacity:0.004" fill="#000000" d="M 275.5,83.5 C 274.833,82.1667 274.833,82.1667 275.5,83.5 Z"/></g>
<g><path style="opacity:0.004" fill="#000000" d="M 281.5,82.5 C 282.833,83.1667 282.833,83.1667 281.5,82.5 Z"/></g>
<g><path style="opacity:0.004" fill="#000000" d="M 287.5,84.5 C 287.747,82.0248 288.413,82.0248 289.5,84.5C 289.03,85.463 288.363,85.463 287.5,84.5 Z"/></g>
<g><path style="opacity:0.004" fill="#000000" d="M 243.5,83.5 C 242.833,84.1667 242.833,84.1667 243.5,83.5 Z"/></g>
<g><path style="opacity:0.004" fill="#000000" d="M 275.5,83.5 C 276.833,84.1667 276.833,84.1667 275.5,83.5 Z"/></g>
<g><path style="opacity:0.915" fill="#ececeb" d="M 230.5,123.5 C 229.833,123.833 229.167,124.167 228.5,124.5C 227.833,124.5 227.5,124.833 227.5,125.5C 225.549,126.282 224.049,127.616 223,129.5C 222.612,128.572 221.945,127.905 221,127.5C 216.473,128.891 212.306,128.225 208.5,125.5C 208.5,124.833 208.167,124.5 207.5,124.5C 205.735,122.102 204.902,119.435 205,116.5C 206.734,117.249 208.567,117.749 210.5,118C 211.748,121.581 214.248,123.081 218,122.5C 219.894,122.42 221.727,122.087 223.5,121.5C 224.406,119.614 225.406,117.78 226.5,116C 225,113.833 223.833,114 223,116.5C 220.812,115.818 218.645,116.152 216.5,117.5C 215.713,115.896 214.38,115.229 212.5,115.5C 211.395,114.4 210.062,113.733 208.5,113.5C 208.5,112.833 208.167,112.5 207.5,112.5C 206.492,110.456 205.492,108.456 204.5,106.5C 204.28,103.378 204.28,100.044 204.5,96.5C 205.625,95.3478 205.625,94.3478 204.5,93.5C 204.5,93.1667 204.5,92.8333 204.5,92.5C 206.619,89.444 209.285,86.944 212.5,85C 215.833,84.3333 219.167,84.3333 222.5,85C 223.931,85.4652 225.097,86.2986 226,87.5C 226.483,86.552 226.649,85.552 226.5,84.5C 228.5,84.5 230.5,84.5 232.5,84.5C 232.667,95.8382 232.5,107.172 232,118.5C 231.392,120.154 230.892,121.821 230.5,123.5 Z M 226.5,96.5 C 224.067,96.7856 224.067,97.4523 226.5,98.5C 226.5,99.1667 226.5,99.8333 226.5,100.5C 224.443,100.957 224.443,101.957 226.5,103.5C 223.363,111.019 218.529,112.352 212,107.5C 209.847,102.396 210.013,97.3965 212.5,92.5C 218.891,87.9648 223.558,89.2982 226.5,96.5 Z"/></g>
<g><path style="opacity:0.917" fill="#e7e7e7" d="M 257.5,115.5 C 257.631,114.624 257.298,113.957 256.5,113.5C 255.261,113.942 254.261,114.609 253.5,115.5C 253.167,115.5 252.833,115.5 252.5,115.5C 245.898,118.232 240.231,116.732 235.5,111C 236.239,108.765 236.239,106.765 235.5,105C 236.883,103.729 237.883,102.229 238.5,100.5C 244.096,98.5591 249.763,96.8924 255.5,95.5C 256.428,94.2322 256.595,92.8989 256,91.5C 253.515,91.5704 251.682,90.9037 250.5,89.5C 246.846,89.4805 244.512,91.1471 243.5,94.5C 242.833,94.5 242.5,94.8333 242.5,95.5C 239.955,95.8495 237.955,95.0162 236.5,93C 240.807,84.9331 247.474,82.2665 256.5,85C 259.057,85.6853 260.891,87.1853 262,89.5C 262.5,96.4921 262.666,103.492 262.5,110.5C 263.5,110.5 264.5,110.5 265.5,110.5C 265.984,117.401 263.317,119.068 257.5,115.5 Z M 255.5,101.5 C 257.144,104.603 256.477,106.936 253.5,108.5C 253.389,109.117 253.056,109.617 252.5,110C 249.5,110.667 246.5,110.667 243.5,110C 242.158,107.544 242.491,105.378 244.5,103.5C 244.511,106.001 245.178,106.168 246.5,104C 246.272,103.601 245.938,103.435 245.5,103.5C 248.656,102.566 251.989,101.899 255.5,101.5 Z M 257.5,115.5 C 256.167,115.5 254.833,115.5 253.5,115.5C 254.261,114.609 255.261,113.942 256.5,113.5C 257.298,113.957 257.631,114.624 257.5,115.5 Z"/></g>
<g><path style="opacity:0.165" fill="#686868" d="M 270.5,84.5 C 270.5,85.1667 270.167,85.5 269.5,85.5C 268.224,84.6136 268.224,83.6136 269.5,82.5C 269.787,83.2003 270.12,83.8669 270.5,84.5 Z"/></g>
<g><path style="opacity:0.825" fill="#fdfdfd" d="M 270.5,84.5 C 272.167,84.5 273.833,84.5 275.5,84.5C 275.5,94.1667 275.5,103.833 275.5,113.5C 274.778,114.551 273.778,115.218 272.5,115.5C 271.603,116.598 270.77,116.598 270,115.5C 269.5,105.506 269.334,95.5056 269.5,85.5C 270.167,85.5 270.5,85.1667 270.5,84.5 Z"/></g>
<g><path style="opacity:0.903" fill="#f2f2f2" d="M 282.5,84.5 C 284.167,84.5 285.833,84.5 287.5,84.5C 287.343,85.8734 287.51,87.2068 288,88.5C 289.846,85.1705 292.679,83.8372 296.5,84.5C 300.433,84.0509 303.6,85.3843 306,88.5C 307.443,97.3921 307.943,106.392 307.5,115.5C 306.833,115.5 306.167,115.5 305.5,115.5C 305.167,115.5 304.833,115.5 304.5,115.5C 303.833,115.5 303.167,115.5 302.5,115.5C 301.671,108.011 301.171,100.344 301,92.5C 299.818,90.6431 298.151,89.6431 296,89.5C 294.225,91.0824 292.391,91.749 290.5,91.5C 289.194,92.9122 288.36,94.5789 288,96.5C 287.833,99.6667 287.667,102.833 287.5,106C 287.55,109.603 288.217,112.936 289.5,116C 286.81,116.184 284.476,116.017 282.5,115.5C 282.5,105.167 282.5,94.8333 282.5,84.5 Z"/></g>
<g><path style="opacity:0.004" fill="#000000" d="M 306.5,86.5 C 305.833,85.1667 305.833,85.1667 306.5,86.5 Z"/></g>
<g><path style="opacity:0.004" fill="#000000" d="M 306.5,86.5 C 307.833,87.1667 307.833,87.1667 306.5,86.5 Z"/></g>
<g><path style="opacity:0.004" fill="#000000" d="M 262.5,87.5 C 263.833,88.1667 263.833,88.1667 262.5,87.5 Z"/></g>
<g><path style="opacity:0.004" fill="#000000" d="M 346.5,88.5 C 345.833,87.1667 345.833,87.1667 346.5,88.5 Z"/></g>
<g><path style="opacity:0.306" fill="#919191" d="M 282.5,84.5 C 282.5,94.8333 282.5,105.167 282.5,115.5C 281.821,106.765 281.154,97.9318 280.5,89C 280.206,87.3464 280.873,85.8464 282.5,84.5 Z"/></g>
<g><path style="opacity:0.004" fill="#000000" d="M 204.5,92.5 C 203.833,91.1667 203.833,91.1667 204.5,92.5 Z"/></g>
<g><path style="opacity:0.004" fill="#000000" d="M 290.5,92.5 C 291.833,93.1667 291.833,93.1667 290.5,92.5 Z"/></g>
<g><path style="opacity:0.004" fill="#000000" d="M 343.5,92.5 C 344.525,92.8966 344.692,93.5632 344,94.5C 343.536,93.9056 343.369,93.2389 343.5,92.5 Z"/></g>
<g><path style="opacity:0.165" fill="#373737" d="M 204.5,93.5 C 205.625,94.3478 205.625,95.3478 204.5,96.5C 201.902,95.4722 201.902,94.4722 204.5,93.5 Z"/></g>
<g><path style="opacity:0.004" fill="#1f1c18" d="M 242.5,95.5 C 242.5,94.8333 242.833,94.5 243.5,94.5C 244.742,96.346 244.409,96.6793 242.5,95.5 Z"/></g>
<g><path style="opacity:0.004" fill="#000000" d="M 299.5,94.5 C 300.833,95.1667 300.833,95.1667 299.5,94.5 Z"/></g>
<g><path style="opacity:0.004" fill="#000000" d="M 245.5,96.5 C 245.897,95.475 246.563,95.3083 247.5,96C 246.906,96.4643 246.239,96.631 245.5,96.5 Z"/></g>
<g><path style="opacity:0.004" fill="#000000" d="M 226.5,96.5 C 226.5,97.1667 226.5,97.8333 226.5,98.5C 224.067,97.4523 224.067,96.7856 226.5,96.5 Z"/></g>
<g><path style="opacity:0.004" fill="#000000" d="M 238.5,100.5 C 237.624,100.631 236.957,100.298 236.5,99.5C 238.808,98.1266 239.475,98.4599 238.5,100.5 Z"/></g>
<g><path style="opacity:0.004" fill="#000000" d="M 340.5,99.5 C 341.833,100.167 341.833,100.167 340.5,99.5 Z"/></g>
<g><path style="opacity:0.004" fill="#000000" d="M 226.5,100.5 C 226.5,101.5 226.5,102.5 226.5,103.5C 224.443,101.957 224.443,100.957 226.5,100.5 Z"/></g>
<g><path style="opacity:0.004" fill="#000000" d="M 352.5,101.5 C 353.525,101.897 353.692,102.563 353,103.5C 352.536,102.906 352.369,102.239 352.5,101.5 Z"/></g>
<g><path style="opacity:0.004" fill="#000000" d="M 244.5,103.5 C 244.833,103.5 245.167,103.5 245.5,103.5C 245.938,103.435 246.272,103.601 246.5,104C 245.178,106.168 244.511,106.001 244.5,103.5 Z"/></g>
<g><path style="opacity:0.004" fill="#000000" d="M 339.5,104.5 C 338.833,103.167 338.833,103.167 339.5,104.5 Z"/></g>
<g><path style="opacity:0.004" fill="#000000" d="M 335.5,105.5 C 337.973,105.947 338.14,106.947 336,108.5C 335.517,107.552 335.351,106.552 335.5,105.5 Z"/></g>
<g><path style="opacity:0.004" fill="#000000" d="M 350.5,105.5 C 351.833,106.167 351.833,106.833 350.5,107.5C 350.5,106.833 350.5,106.167 350.5,105.5 Z"/></g>
<g><path style="opacity:0.004" fill="#000000" d="M 204.5,106.5 C 203.833,107.167 203.833,107.167 204.5,106.5 Z"/></g>
<g><path style="opacity:0.004" fill="#000000" d="M 253.5,108.5 C 252.227,107.923 252.227,107.257 253.5,106.5C 254.463,106.97 254.463,107.637 253.5,108.5 Z"/></g>
<g><path style="opacity:0.004" fill="#000000" d="M 350.5,107.5 C 349.833,108.167 349.833,108.167 350.5,107.5 Z"/></g>
<g><path style="opacity:0.004" fill="#000000" d="M 203.5,108.5 C 204.833,109.167 204.833,109.167 203.5,108.5 Z"/></g>
<g><path style="opacity:0.004" fill="#000000" d="M 264.5,108.5 C 265.833,109.167 265.833,109.167 264.5,108.5 Z"/></g>
<g><path style="opacity:0.004" fill="#000000" d="M 347.5,110.5 C 348.833,111.167 348.833,111.167 347.5,110.5 Z"/></g>
<g><path style="opacity:0.004" fill="#000000" d="M 346.5,111.5 C 346.833,111.5 347.167,111.5 347.5,111.5C 347.315,112.17 346.981,112.17 346.5,111.5 Z"/></g>
<g><path style="opacity:0.004" fill="#000000" d="M 207.5,112.5 C 208.167,112.5 208.5,112.833 208.5,113.5C 208.5,113.833 208.5,114.167 208.5,114.5C 206.576,114.289 206.243,113.623 207.5,112.5 Z"/></g>
<g><path style="opacity:0.004" fill="#000000" d="M 330.5,113.5 C 331.833,114.167 331.833,114.167 330.5,113.5 Z"/></g>
<g><path style="opacity:0.004" fill="#000000" d="M 345.5,115.5 C 345.369,114.761 345.536,114.094 346,113.5C 346.692,114.437 346.525,115.103 345.5,115.5 Z"/></g>
<g><path style="opacity:0.004" fill="#000000" d="M 208.5,114.5 C 209.167,114.5 209.5,114.833 209.5,115.5C 209.167,115.167 208.833,114.833 208.5,114.5 Z"/></g>
<g><path style="opacity:0.004" fill="#000000" d="M 237.5,115.5 C 236.833,114.167 236.833,114.167 237.5,115.5 Z"/></g>
<g><path style="opacity:0.004" fill="#000000" d="M 330.5,114.5 C 329.833,115.167 329.833,115.167 330.5,114.5 Z"/></g>
<g><path style="opacity:0.004" fill="#000000" d="M 209.5,115.5 C 210.833,116.167 210.833,116.167 209.5,115.5 Z"/></g>
<g><path style="opacity:0.004" fill="#000000" d="M 212.5,115.5 C 214.38,115.229 215.713,115.896 216.5,117.5C 214.62,117.771 213.287,117.104 212.5,115.5 Z"/></g>
<g><path style="opacity:0.004" fill="#000000" d="M 237.5,115.5 C 238.239,115.369 238.906,115.536 239.5,116C 238.563,116.692 237.897,116.525 237.5,115.5 Z"/></g>
<g><path style="opacity:0.004" fill="#000000" d="M 252.5,115.5 C 252.833,115.5 253.167,115.5 253.5,115.5C 254.833,115.5 256.167,115.5 257.5,115.5C 257.217,116.289 256.717,116.956 256,117.5C 254.698,116.915 253.531,116.249 252.5,115.5 Z"/></g>
<g><path style="opacity:0.004" fill="#261e18" d="M 275.5,113.5 C 275.5,114.5 275.5,115.5 275.5,116.5C 274.209,116.737 273.209,116.404 272.5,115.5C 273.778,115.218 274.778,114.551 275.5,113.5 Z"/></g>
<g><path style="opacity:0.004" fill="#000000" d="M 302.5,115.5 C 303.167,115.5 303.833,115.5 304.5,115.5C 303.452,117.933 302.786,117.933 302.5,115.5 Z"/></g>
<g><path style="opacity:0.004" fill="#000000" d="M 305.5,115.5 C 306.167,115.5 306.833,115.5 307.5,115.5C 306.452,117.933 305.786,117.933 305.5,115.5 Z"/></g>
<g><path style="opacity:0.004" fill="#000000" d="M 345.5,115.5 C 344.833,116.167 344.833,116.167 345.5,115.5 Z"/></g>
<g><path style="opacity:0.004" fill="#000000" d="M 327.5,116.5 C 328.833,117.167 328.833,117.167 327.5,116.5 Z"/></g>
<g><path style="opacity:0.004" fill="#000000" d="M 341.5,118.5 C 342.363,117.537 343.03,117.537 343.5,118.5C 342.743,119.773 342.077,119.773 341.5,118.5 Z"/></g>
<g><path style="opacity:0.004" fill="#000000" d="M 213.5,119.5 C 214.833,120.167 214.833,120.167 213.5,119.5 Z"/></g>
<g><path style="opacity:0.004" fill="#000000" d="M 221.5,120.5 C 221.897,119.475 222.563,119.308 223.5,120C 222.906,120.464 222.239,120.631 221.5,120.5 Z"/></g>
<g><path style="opacity:0.004" fill="#000000" d="M 203.5,120.5 C 204.833,121.167 204.833,121.167 203.5,120.5 Z"/></g>
<g><path style="opacity:0.004" fill="#000000" d="M 339.5,120.5 C 340.525,120.897 340.692,121.563 340,122.5C 339.536,121.906 339.369,121.239 339.5,120.5 Z"/></g>
<g><path style="opacity:0.004" fill="#000000" d="M 322.5,121.5 C 323.833,122.167 323.833,122.167 322.5,121.5 Z"/></g>
<g><path style="opacity:0.004" fill="#000000" d="M 231.5,122.5 C 232.833,123.167 232.833,123.167 231.5,122.5 Z"/></g>
<g><path style="opacity:0.004" fill="#000000" d="M 230.5,123.5 C 230.833,123.5 231.167,123.5 231.5,123.5C 231.315,124.17 230.981,124.17 230.5,123.5 Z"/></g>
<g><path style="opacity:0.004" fill="#000000" d="M 337.5,123.5 C 338.833,124.167 338.833,124.167 337.5,123.5 Z"/></g>
<g><path style="opacity:0.004" fill="#000000" d="M 207.5,124.5 C 208.167,124.5 208.5,124.833 208.5,125.5C 208.12,126.133 207.787,126.8 207.5,127.5C 206.224,126.386 206.224,125.386 207.5,124.5 Z"/></g>
<g><path style="opacity:0.004" fill="#000000" d="M 317.5,125.5 C 317.897,124.475 318.563,124.308 319.5,125C 318.906,125.464 318.239,125.631 317.5,125.5 Z"/></g>
<g><path style="opacity:0.004" fill="#1a1814" d="M 228.5,124.5 C 229.772,127.656 229.439,127.989 227.5,125.5C 227.5,124.833 227.833,124.5 228.5,124.5 Z"/></g>
<g><path style="opacity:0.004" fill="#000000" d="M 334.5,125.5 C 335.833,126.167 335.833,126.167 334.5,125.5 Z"/></g>
<g><path style="opacity:0.004" fill="#000000" d="M 314.5,127.5 C 314.897,126.475 315.563,126.308 316.5,127C 315.906,127.464 315.239,127.631 314.5,127.5 Z"/></g>
<g><path style="opacity:0.004" fill="#000000" d="M 331.5,129.5 C 331.897,128.475 332.563,128.308 333.5,129C 332.906,129.464 332.239,129.631 331.5,129.5 Z"/></g>
<g><path style="opacity:0.004" fill="#000000" d="M 310.5,129.5 C 311.833,130.167 311.833,130.167 310.5,129.5 Z"/></g>
<g><path style="opacity:0.004" fill="#000000" d="M 328.5,131.5 C 328.5,131.167 328.5,130.833 328.5,130.5C 329.376,130.369 330.043,130.702 330.5,131.5C 330.03,132.463 329.363,132.463 328.5,131.5 Z"/></g>
<g><path style="opacity:0.004" fill="#000000" d="M 328.5,131.5 C 327.833,132.167 327.833,132.167 328.5,131.5 Z"/></g>
<g><path style="opacity:0.004" fill="#000000" d="M 249.5,132.5 C 250.833,133.167 250.833,133.167 249.5,132.5 Z"/></g>
<g><path style="opacity:0.004" fill="#000000" d="M 324.5,133.5 C 325.833,134.167 325.833,134.167 324.5,133.5 Z"/></g>
<g><path style="opacity:0.004" fill="#000000" d="M 255.5,135.5 C 255.897,134.475 256.563,134.308 257.5,135C 256.906,135.464 256.239,135.631 255.5,135.5 Z"/></g>
<g><path style="opacity:0.004" fill="#000000" d="M 320.5,135.5 C 320.833,135.5 321.167,135.5 321.5,135.5C 321.315,136.17 320.981,136.17 320.5,135.5 Z"/></g>
<g><path style="opacity:0.004" fill="#000000" d="M 319.5,136.5 C 319.833,136.5 320.167,136.5 320.5,136.5C 320.315,137.17 319.981,137.17 319.5,136.5 Z"/></g>
<g><path style="opacity:0.004" fill="#000000" d="M 315.5,138.5 C 316.239,138.369 316.906,138.536 317.5,139C 316.563,139.692 315.897,139.525 315.5,138.5 Z"/></g>
<g><path style="opacity:0.004" fill="#000000" d="M 313.5,139.5 C 314.833,140.167 314.833,140.167 313.5,139.5 Z"/></g>
<g><path style="opacity:0.004" fill="#000000" d="M 255.5,141.5 C 256.833,142.167 256.833,142.167 255.5,141.5 Z"/></g>
<g><path style="opacity:0.004" fill="#1c1c1c" d="M 260.5,141.5 C 261.167,141.5 261.5,141.833 261.5,142.5C 259.654,143.742 259.321,143.409 260.5,141.5 Z"/></g>
<g><path style="opacity:0.404" fill="#784e2d" d="M 268.5,143.5 C 270.565,143.517 272.565,143.85 274.5,144.5C 274.5,144.833 274.5,145.167 274.5,145.5C 273.167,145.5 271.833,145.5 270.5,145.5C 269.833,144.833 269.167,144.167 268.5,143.5 Z"/></g>
<g><path style="opacity:0.004" fill="#000000" d="M 298.5,143.5 C 299.167,143.5 299.833,143.5 300.5,143.5C 300.5,144.167 300.5,144.833 300.5,145.5C 300.167,145.5 299.833,145.5 299.5,145.5C 299.167,144.833 298.833,144.167 298.5,143.5 Z"/></g>
<g><path style="opacity:0.004" fill="#000000" d="M 263.5,145.5 C 264.167,144.167 264.833,144.167 265.5,145.5C 264.833,145.5 264.167,145.5 263.5,145.5 Z"/></g>
</svg>
